<?xml version="1.0" ?><svg viewBox="0 0 48 48" xmlns="http://www.w3.org/2000/svg" xmlns:xlink="http://www.w3.org/1999/xlink"><defs><style>.cls-1{fill:url(#linear-gradient);}.cls-2{fill:url(#linear-gradient-2);}.cls-3{fill:#fff;}.cls-4{fill:#a7c1db;}.cls-5{fill:url(#linear-gradient-3);}</style><linearGradient gradientUnits="userSpaceOnUse" id="linear-gradient" x1="24" x2="24" y1="21.42" y2="6.11"><stop offset="0" stop-color="#f1f5f9"/><stop offset="1" stop-color="#a7c1db"/></linearGradient><linearGradient gradientUnits="userSpaceOnUse" id="linear-gradient-2" x1="24" x2="24" y1="24.54" y2="44.01"><stop offset="0" stop-color="#f1f5f9"/><stop offset="1" stop-color="#d8e5f4"/></linearGradient><linearGradient id="linear-gradient-3" x1="16.5" x2="16.5" xlink:href="#linear-gradient" y1="32.49" y2="10.44"/></defs><title/><g id="icons"><g data-name="Layer 3" id="Layer_3"><path class="cls-1" d="M4.5,5,8.39,8l3.9-3,3.9,3,3.9-3L24,8l3.9-3,3.9,3,3.9-3,3.9,3L43.5,5V36a5,5,0,0,1-5,5H9.5a5,5,0,0,1-5-5Z"/><path class="cls-2" d="M4.5,7l3.89,3,3.9-3,3.9,3,3.9-3L24,10l3.9-3,3.9,3,3.9-3,3.9,3L43.5,7V38a5,5,0,0,1-5,5H9.5a5,5,0,0,1-5-5Z"/><path class="cls-3" d="M7.5,37.64h20v-2H7.5Zm0-4h32v-2H7.5Zm20-4h12v-2h-12Zm0-8h12v-2h-12Zm0,4h12v-2h-12Zm-20-10v2h32v-2Z"/><path class="cls-4" d="M7.5,37h20V35H7.5Zm0-4h32V31H7.5Zm20-4h12V27h-12Zm0-8h12V19h-12Zm0,4h12V23h-12ZM7.5,15v2h32V15Z"/><rect class="cls-5" height="10" width="18" x="7.5" y="19"/><path class="cls-4" d="M13.44,27.73a.82.82,0,0,1-.94-.9v-.18a1.94,1.94,0,0,0,.64-1.1c.16,0,.3-.25.3-.54a.63.63,0,0,0-.21-.52c0-.36,0-.83-.22-1-.26-.78-1.1-.79-1.8-.79a1.42,1.42,0,0,0-1.45,1,1.69,1.69,0,0,0,0,.77.61.61,0,0,0-.22.52c0,.3.15.55.33.55h0a2,2,0,0,0,.61,1.05v.22a.83.83,0,0,1-.94.9A1.41,1.41,0,0,0,8.23,29h6.54A1.41,1.41,0,0,0,13.44,27.73Z"/><path class="cls-4" d="M23.44,27.73a.83.83,0,0,1-.94-.9v-.18a1.94,1.94,0,0,0,.64-1.1c.17,0,.3-.25.3-.54a.63.63,0,0,0-.21-.52c0-.36,0-.83-.22-1-.26-.78-1.11-.79-1.8-.79a1.44,1.44,0,0,0-1.46,1,1.86,1.86,0,0,0,0,.77.61.61,0,0,0-.22.52c0,.3.14.55.33.55h0a2,2,0,0,0,.61,1.05v.22a.83.83,0,0,1-.94.9A1.43,1.43,0,0,0,18.22,29h6.55A1.41,1.41,0,0,0,23.44,27.73Z"/><path class="cls-4" d="M18.44,27.71a.83.83,0,0,1-.94-.91v-.18a2,2,0,0,0,.64-1.11c.16,0,.3-.26.3-.55a.63.63,0,0,0-.21-.52c0-.37,0-.85-.21-1-.27-.79-1.11-.8-1.81-.8a1.42,1.42,0,0,0-1.45,1,1.73,1.73,0,0,0,0,.78.62.62,0,0,0-.22.53c0,.3.14.55.33.55h0a2,2,0,0,0,.61,1.07v.22a.83.83,0,0,1-.94.91A1.42,1.42,0,0,0,13.23,29h6.54A1.42,1.42,0,0,0,18.44,27.71Z"/></g></g></svg>